<svg xmlns="http://www.w3.org/2000/svg" height="48" width="48"><path d="M24 34.25q3.05 0 5.6-1.625t3.75-4.375h-18.7q1.2 2.75 3.75 4.375T24 34.25ZM15.3 21.1l2.2-2.25 2.25 2.25 1.4-1.45L17.5 16l-3.65 3.65Zm13 0 2.25-2.25 2.2 2.25 1.45-1.45L30.55 16l-3.65 3.65ZM24 42.85q-3.9 0-7.35-1.475-3.45-1.475-6-4.025-2.55-2.55-4.025-6Q5.15 27.9 5.15 24q0-3.9 1.475-7.35 1.475-3.45 4.025-6 2.55-2.55 6-4.025Q20.1 5.15 24 5.15q3.9 0 7.35 1.475 3.45 1.475 6 4.025 2.55 2.55 4.025 6Q42.85 20.1 42.85 24q0 3.9-1.475 7.35-1.475 3.45-4.025 6-2.55 2.55-6 4.025Q27.9 42.85 24 42.85ZM24 24Zm0 16.65q6.95 0 11.8-4.825Q40.65 31 40.65 24q0-6.95-4.825-11.8Q31 7.35 24 7.35q-6.95 0-11.8 4.825Q7.35 17 7.35 24q0 6.95 4.825 11.8Q17 40.65 24 40.65Z"/></svg>